<?xml version="1.0" encoding="UTF-8"?>
<svg width="96px" height="25px" viewBox="0 0 96 25" version="1.1" xmlns="http://www.w3.org/2000/svg" xmlns:xlink="http://www.w3.org/1999/xlink">
    <!-- Generator: Sketch 52.3 (67297) - http://www.bohemiancoding.com/sketch -->
    <title>Group 4</title>
    <desc>Created with Sketch.</desc>
    <g id="Page-1" stroke="none" stroke-width="1" fill="none" fill-rule="evenodd">
        <g id="Claim-review-dashboard-(old)" transform="translate(-55.000000, -1341.000000)" fill="#0052CC">
            <g id="Group-7" transform="translate(56.000000, 1340.681417)">
                <g id="Group-4" transform="translate(0.000000, 2.000000)">
                    <g id="Group" transform="translate(24.113341, 4.219395)">
                        <path d="M3.99989297,11.0180713 C1.79199878,11.0180713 0.125111778,9.21958795 0.125111778,7.09942466 L0.125111778,7.07018103 C0.125111778,4.93539592 1.79199878,3.12229076 3.99989297,3.12229076 C5.25736912,3.12229076 6.10543444,3.60481068 6.77803797,4.21892695 C6.86576886,4.29203602 6.95349976,4.43825418 6.95349976,4.61371597 C6.95349976,4.9207741 6.70492889,5.15472316 6.41249257,5.15472316 C6.26627441,5.15472316 6.13467807,5.09623589 6.04694718,5.02312681 C5.50593999,4.52598508 4.89182373,4.11657423 3.98527115,4.11657423 C2.44998049,4.11657423 1.28023523,5.41791584 1.28023523,7.04093739 L1.28023523,7.07018103 C1.28023523,8.7078244 2.47922412,10.009166 4.05838023,10.009166 C4.92106736,10.009166 5.6082927,9.61437698 6.1639217,9.08799161 C6.23703078,9.01488253 6.33938349,8.94177345 6.48560165,8.94177345 C6.76341615,8.94177345 6.9973652,9.19034432 6.9973652,9.453537 C6.9973652,9.58513334 6.93887794,9.71672969 6.85114705,9.80446058 C6.13467807,10.5209296 5.27199094,11.0180713 3.99989297,11.0180713 Z M9.04441942,10.3454678 L9.04441942,0.665825706 C9.04441942,0.358767574 9.29299028,0.0955748897 9.60004842,0.0955748897 C9.92172836,0.0955748897 10.1702992,0.358767574 10.1702992,0.665825706 L10.1702992,10.3454678 C10.1702992,10.6671477 9.93635018,10.9157186 9.61467023,10.9157186 C9.29299028,10.9157186 9.04441942,10.6671477 9.04441942,10.3454678 Z M15.0393639,11.0034495 C13.6356696,11.0034495 12.2173534,10.1992496 12.2173534,8.64933713 L12.2173534,8.6200935 C12.2173534,7.02631558 13.5333169,6.17825026 15.4487747,6.17825026 C16.4138146,6.17825026 17.1010399,6.3098466 17.7736434,6.49993021 L17.7736434,6.23673753 C17.7736434,4.87690866 16.9401999,4.1750615 15.5218838,4.1750615 C14.7615494,4.1750615 14.1181895,4.35052329 13.5625605,4.59909416 C13.4894514,4.62833779 13.4163423,4.6429596 13.3578551,4.6429596 C13.0946624,4.6429596 12.8607133,4.42363237 12.8607133,4.16043968 C12.8607133,3.92649063 13.0215533,3.75102884 13.1677715,3.69254158 C13.9134841,3.37086163 14.6738185,3.18077802 15.6388583,3.18077802 C16.7062509,3.18077802 17.5250726,3.45859252 18.0807016,4.01422152 C18.5924651,4.52598508 18.8556578,5.25707587 18.8556578,6.22211571 L18.8556578,10.3600896 C18.8556578,10.6817695 18.6217088,10.9157186 18.3146506,10.9157186 C17.9929707,10.9157186 17.7736434,10.6817695 17.7736434,10.3893332 L17.7736434,9.70210787 C17.2472581,10.3893332 16.3699491,11.0034495 15.0393639,11.0034495 Z M15.2586911,10.1115187 C16.6477636,10.1115187 17.7882653,9.2634534 17.7882653,8.0644645 L17.7882653,7.33337371 C17.2326363,7.17253374 16.4869237,7.01169376 15.5657493,7.01169376 C14.1474331,7.01169376 13.3578551,7.62581003 13.3578551,8.57622805 L13.3578551,8.60547168 C13.3578551,9.55588971 14.235164,10.1115187 15.2586911,10.1115187 Z M21.2536356,1.10448018 L21.2536356,0.914396574 C21.2536356,0.54885118 21.5460719,0.314902127 21.9116173,0.314902127 C22.2917845,0.314902127 22.5842208,0.54885118 22.5842208,0.914396574 L22.5842208,1.10448018 C22.5842208,1.45540376 22.2917845,1.70397463 21.9116173,1.70397463 C21.5460719,1.70397463 21.2536356,1.45540376 21.2536356,1.10448018 Z M21.3559883,10.3454678 L21.3559883,3.78027247 C21.3559883,3.47321434 21.6045592,3.21002165 21.9116173,3.21002165 C22.2332973,3.21002165 22.4818681,3.45859252 22.4818681,3.78027247 L22.4818681,10.3454678 C22.4818681,10.6671477 22.2479191,10.9157186 21.9262391,10.9157186 C21.6045592,10.9157186 21.3559883,10.6671477 21.3559883,10.3454678 Z M25.0991732,10.3454678 L25.0991732,3.78027247 C25.0991732,3.47321434 25.347744,3.21002165 25.6548022,3.21002165 C25.9764821,3.21002165 26.225053,3.45859252 26.225053,3.78027247 L26.225053,4.55522871 C26.7221947,3.8095161 27.3947982,3.12229076 28.6668962,3.12229076 C29.8951287,3.12229076 30.6847068,3.78027247 31.0941176,4.62833779 C31.6351248,3.79489429 32.4393247,3.12229076 33.7552881,3.12229076 C35.4952842,3.12229076 36.5626768,4.29203602 36.5626768,6.16362845 L36.5626768,10.3454678 C36.5626768,10.6671477 36.3141059,10.9157186 36.0070478,10.9157186 C35.6853678,10.9157186 35.4367969,10.6671477 35.4367969,10.3454678 L35.4367969,6.42682113 C35.4367969,4.96463955 34.7057061,4.14581787 33.4774736,4.14581787 C32.336972,4.14581787 31.4011758,4.99388318 31.4011758,6.48530839 L31.4011758,10.3454678 C31.4011758,10.6671477 31.1526049,10.9157186 30.830925,10.9157186 C30.5238668,10.9157186 30.275296,10.6671477 30.275296,10.3454678 L30.275296,6.3975775 C30.275296,4.97926137 29.5295834,4.14581787 28.3305945,4.14581787 C27.1316056,4.14581787 26.225053,5.14010134 26.225053,6.52917384 L26.225053,10.3454678 C26.225053,10.6671477 25.9911039,10.9157186 25.669424,10.9157186 C25.347744,10.9157186 25.0991732,10.6671477 25.0991732,10.3454678 Z" id="claim"></path>
                        <path d="M43.9450691,11.0180713 C40.932975,11.0180713 38.6958372,8.69320258 38.6958372,5.7542176 L38.6958372,5.72497397 C38.6958372,2.81523263 40.8891096,0.431876653 44.0328,0.431876653 C45.5680906,0.431876653 46.6062396,0.841287495 47.4543049,1.47002557 C47.6882539,1.64548736 47.8929593,1.96716731 47.8929593,2.36195634 C47.8929593,2.9760726 47.3958176,3.45859252 46.7817013,3.45859252 C46.4746432,3.45859252 46.2699378,3.341618 46.1090978,3.23926529 C45.4803597,2.77136718 44.822378,2.5081745 44.0181782,2.5081745 C42.2928039,2.5081745 41.0499496,3.94111244 41.0499496,5.69573034 L41.0499496,5.72497397 C41.0499496,7.47959187 42.2635603,8.94177345 44.0181782,8.94177345 C44.9685962,8.94177345 45.5973343,8.64933713 46.2406942,8.13757358 C46.416156,7.99135542 46.650105,7.88900271 46.9132977,7.88900271 C47.4835485,7.88900271 47.9660684,8.35690082 47.9660684,8.92715163 C47.9660684,9.27807521 47.7906066,9.55588971 47.5859012,9.7313515 C46.6647268,10.5355514 45.5827125,11.0180713 43.9450691,11.0180713 Z M49.9400136,9.71672969 L49.9400136,1.73321826 C49.9400136,1.10448018 50.4371553,0.607338443 51.0658934,0.607338443 L53.9317693,0.607338443 C57.1485687,0.607338443 59.3710848,2.81523263 59.3710848,5.69573034 L59.3710848,5.72497397 C59.3710848,8.60547168 57.1485687,10.8426095 53.9317693,10.8426095 L51.0658934,10.8426095 C50.4371553,10.8426095 49.9400136,10.3454678 49.9400136,9.71672969 Z M52.1917732,8.81017711 L53.9317693,8.81017711 C55.7741181,8.81017711 57.0169724,7.56732276 57.0169724,5.7542176 L57.0169724,5.72497397 C57.0169724,3.91186881 55.7741181,2.63977084 53.9317693,2.63977084 L52.1917732,2.63977084 L52.1917732,8.81017711 Z M61.3742735,9.80446058 L61.3742735,1.73321826 C61.3742735,1.10448018 61.8714153,0.607338443 62.5001533,0.607338443 L66.0532546,0.607338443 C67.3545962,0.607338443 68.3635015,0.972883838 69.036105,1.64548736 C69.6063558,2.21573818 69.9134139,3.01993805 69.9134139,3.98497789 L69.9134139,4.01422152 C69.9134139,5.62262126 69.1092141,6.61690474 67.8663597,7.12866829 L69.430894,9.02950434 C69.6502213,9.30731884 69.7964394,9.5412679 69.7964394,9.89219148 C69.7964394,10.5209296 69.270054,10.9303404 68.7290469,10.9303404 C68.2172833,10.9303404 67.8809815,10.6817695 67.6177889,10.3454678 L65.4245165,7.56732276 L63.6260331,7.56732276 L63.6260331,9.80446058 C63.6260331,10.4331987 63.1288914,10.9303404 62.5001533,10.9303404 C61.8714153,10.9303404 61.3742735,10.4331987 61.3742735,9.80446058 Z M63.6260331,5.57875581 L65.9070364,5.57875581 C67.0036726,5.57875581 67.6324107,4.99388318 67.6324107,4.13119605 L67.6324107,4.10195242 C67.6324107,3.13691258 66.9598072,2.63977084 65.863171,2.63977084 L63.6260331,2.63977084 L63.6260331,5.57875581 Z" id="CDR"></path>
                    </g>
                    <g id="Group-3" transform="translate(0.121130, 0.000000)">
                        <g id="Group-2" transform="translate(0.057898, 0.000000)" stroke="#0052CC" stroke-width="2">
                            <path d="M11.613848,1.20895821 L8.17254132,1.20895821 C8.17254132,3.96200353 6.23910053,5.71305506 4.00053055,7.74055823 C1.65470652,9.86441798 -1.00427642,12.2721855 -1.00427642,16.121287 L-1.00427642,20.7096959 L2.43703023,20.7096959 L2.43703023,16.121287 C2.43703023,13.798405 4.23167165,12.1729612 6.31022087,10.29114 C7.55253257,9.16583273 8.87800918,7.96539026 9.89319464,6.51201176 C10.9083801,7.96539026 12.2338567,9.16583273 13.4761684,10.29114 C15.5547176,12.1729612 17.349359,13.798405 17.349359,16.121287 L17.349359,20.7096959 L20.7906657,20.7096959 L20.7906657,16.121287 C20.7906657,12.2721855 18.1316828,9.86441798 15.7858587,7.74055823 C13.5472888,5.71305506 11.613848,3.96200353 11.613848,1.20895821 Z" id="Fill-71" transform="translate(9.893195, 10.959327) rotate(-90.000000) translate(-9.893195, -10.959327) "></path>
                            <path d="M16.2022568,5.79736708 L12.7609502,5.79736708 C12.7609502,8.5504124 10.8275094,10.3014639 8.58893942,12.3289671 C6.24311539,14.4528269 3.58413245,16.8605944 3.58413245,20.7096959 L3.58413245,25.2981048 L7.0254391,25.2981048 L7.0254391,20.7096959 C7.0254391,18.3868139 9.70028961,15.9199187 11.7788388,14.0380976 C13.0211505,12.9127903 16.2022568,9.98107915 16.2022568,5.79736708 Z" id="Fill-71" transform="translate(9.893195, 15.547736) rotate(-90.000000) translate(-9.893195, -15.547736) "></path>
                        </g>
                        <circle id="Oval-3" cx="16.8156651" cy="11.0353396" r="2.93274125"></circle>
                    </g>
                </g>
            </g>
        </g>
    </g>
</svg>